HIERARCHY
ROOT Hips
{
     OFFSET 31.07450 94.26180 13.94850
     CHANNELS 6 Xposition Yposition Zposition Zrotation Xrotation Yrotation
     JOINT Spine
     {
          OFFSET 0.00000 11.89050 -0.00000
          CHANNELS 3 Zrotation Xrotation Yrotation
          JOINT Spine1
          {
               OFFSET 0.00000 25.65740 0.12766
               CHANNELS 3 Zrotation Xrotation Yrotation
               JOINT HEad
               {
                    OFFSET 0.00000 8.73416 0.01134
                    CHANNELS 3 Zrotation Xrotation Yrotation
                    End Site
                    {
                         OFFSET -0.29000 12.77420 2.51395
                    }
               }
               JOINT LeftShoulder1
               {
                    OFFSET 8.99000 -0.36225 -0.22000
                    CHANNELS 3 Zrotation Xrotation Yrotation
                    JOINT LeftArm
                    {
                         OFFSET 10.28270 -0.00338 0.32212
                         CHANNELS 3 Zrotation Xrotation Yrotation
                         JOINT LeftForeArm
                         {
                              OFFSET 32.76690 0.09914 -1.42434
                              CHANNELS 3 Zrotation Xrotation Yrotation
                              JOINT LeftHand
                              {
                                   OFFSET 27.56430 0.08536 1.02216
                                   CHANNELS 3 Zrotation Xrotation Yrotation
                                   End Site
                                   {
                                        OFFSET 16.74430 -0.60000 1.50291
                                   }
                              }
                         }
                    }
               }
               JOINT RightShoulder
               {
                    OFFSET -8.99000 -0.36225 -0.22000
                    CHANNELS 3 Zrotation Xrotation Yrotation
                    JOINT RightArm
                    {
                         OFFSET -10.28270 -0.00338 0.32212
                         CHANNELS 3 Zrotation Xrotation Yrotation
                         JOINT RightForeArm
                         {
                              OFFSET -32.89710 0.09914 -1.42434
                              CHANNELS 3 Zrotation Xrotation Yrotation
                              JOINT RightHand
                              {
                                   OFFSET -27.49210 0.08536 1.02216
                                   CHANNELS 3 Zrotation Xrotation Yrotation
                                   End Site
                                   {
                                        OFFSET -16.63120 -0.60000 1.50291
                                   }
                              }
                         }
                    }
               }
          }
     }
     JOINT LeftUpLeg
     {
          OFFSET 8.94580 -8.66707 0.10165
          CHANNELS 3 Zrotation Xrotation Yrotation
          JOINT LeftLeg
          {
               OFFSET 0.00000 -44.42270 1.37270
               CHANNELS 3 Zrotation Xrotation Yrotation
               JOINT LeftFoot
               {
                    OFFSET -0.25355 -42.09240 -1.46059
                    CHANNELS 3 Zrotation Xrotation Yrotation
                    JOINT LeftToes
                    {
                         OFFSET -0.04000 -4.41509 8.49910
                         CHANNELS 3 Zrotation Xrotation Yrotation
                         End Site
                         {
                              OFFSET 0.08000 -0.04745 9.77979
                         }
                    }
               }
          }
     }
     JOINT RightUpLeg
     {
          OFFSET -8.94580 -8.66707 0.10165
          CHANNELS 3 Zrotation Xrotation Yrotation
          JOINT RightLeg
          {
               OFFSET 0.00000 -44.42270 1.37270
               CHANNELS 3 Zrotation Xrotation Yrotation
               JOINT RightFoot
               {
                    OFFSET 0.25355 -42.09240 -1.46059
                    CHANNELS 3 Zrotation Xrotation Yrotation
                    JOINT RightToes
                    {
                         OFFSET 0.04000 -4.41509 8.49910
                         CHANNELS 3 Zrotation Xrotation Yrotation
                         End Site
                         {
                              OFFSET -0.08000 -0.13745 9.77979
                         }
                    }
               }
          }
     }
}
MOTION
Frames: 12
Frame Time: 0.01667
10.78500 94.55150 -31.37460 -6.93872 -16.72280 -29.25350 -3.76229 11.54340 0.70983 -3.52799 22.85630 1.35000 -6.10730 3.71564 6.06088 -0.00000 0.00000 -0.00000 -129.46400 -53.27030 -96.03200 -58.33000 60.97670 -63.49160 12.27650 8.54313 -9.17674 14.61410 1.27244 4.76105 87.54410 -0.31230 76.31970 -2.29284 27.98070 99.46260 9.53192 12.07760 20.00410 22.22770 -5.27794 -20.31480 -31.37290 10.06060 75.18050 -2.55873 15.48630 0.40593 6.17876 -17.89630 -55.59520 -24.18990 9.85023 10.36780 41.83180 9.17189 -39.01170 -35.73470 -1.83801 1.75270 7.42378 -39.99830 16.76430 
11.08620 94.60490 -30.83660 -7.09663 -16.50680 -30.09220 -3.80522 11.50780 0.69623 -3.45647 22.77000 1.31676 -6.35858 3.55448 6.30631 -0.00000 0.00000 -0.00000 -128.10600 -53.21000 -94.11400 -56.87930 61.04990 -66.09080 12.33510 8.61241 -8.42845 15.07740 1.24954 4.47780 86.80760 -0.07522 76.37710 -2.21047 27.98240 99.36390 9.44435 12.05820 19.99550 22.62310 -5.51679 -19.34300 -31.42200 10.30300 74.94860 -2.31279 15.67420 0.35912 5.92581 -18.87760 -56.50900 -24.45920 9.71817 10.43820 41.65950 9.31670 -37.81310 -35.16330 -1.68059 1.77137 7.14062 -39.34540 16.33370 
11.41340 94.60370 -30.21090 -7.31878 -16.20960 -30.94700 -3.69452 11.51740 0.60005 -3.31255 22.77970 1.15722 -6.63619 3.22106 6.66668 -0.00000 0.00000 -0.00000 -127.54300 -53.21500 -92.56600 -55.80800 61.40510 -68.62950 12.44600 8.68256 -7.62454 15.16190 1.21719 4.26936 86.44460 0.28759 76.53450 -2.15516 28.00230 99.31990 9.40792 12.04020 19.88230 23.14390 -5.71461 -18.62500 -31.23730 10.24560 74.24000 -2.38722 15.43410 0.37067 5.83165 -19.23480 -56.93610 -24.68380 9.51650 10.47860 41.52100 9.56662 -36.75750 -34.49460 -1.53192 1.77989 6.95841 -38.88210 16.08950 
11.76040 94.55340 -29.49170 -7.61211 -15.84370 -31.85750 -3.45250 11.55850 0.44745 -3.13435 22.86200 0.92026 -6.87462 2.77303 7.13605 -0.00000 0.00000 -0.00000 -127.57900 -53.26660 -91.28970 -54.57230 62.02530 -71.62450 12.61730 8.76002 -6.70746 15.01760 1.18087 4.10851 86.36570 0.73589 76.71280 -2.16173 28.03670 99.38080 9.44630 12.03090 19.69030 23.80000 -5.86641 -18.28780 -30.85660 9.90993 73.35190 -2.78608 14.87270 0.44049 5.92657 -18.89990 -56.73860 -24.87830 9.27657 10.54120 41.42620 9.86277 -35.84900 -33.79580 -1.37898 1.78615 6.90414 -38.66100 16.11090 
12.13040 94.46240 -28.67130 -7.98556 -15.41950 -32.90200 -3.10966 11.60750 0.27300 -2.95818 22.97400 0.66863 -7.03983 2.24670 7.74768 -0.00000 0.00000 -0.00000 -127.38800 -53.21560 -89.79620 -52.14160 62.51490 -76.03220 12.76840 8.85765 -5.63999 14.77630 1.15010 4.00564 86.42480 1.21321 76.82110 -2.21348 28.08370 99.52230 9.53386 12.02970 19.47740 24.59820 -5.96702 -18.41710 -30.35590 9.37723 72.62750 -3.45984 14.10870 0.55407 6.20135 -17.85610 -55.85680 -25.04870 9.00304 10.66960 41.35790 10.18870 -34.98570 -33.13880 -1.21926 1.79514 6.93854 -38.63960 16.28630 
12.53740 94.34270 -27.74890 -8.41023 -14.93490 -34.12520 -2.70381 11.63920 0.09194 -2.79897 23.06480 0.42138 -7.18452 1.68813 8.54509 -0.00000 0.00000 -0.00000 -126.28400 -52.93730 -87.75790 -48.04390 62.39000 -82.23520 12.83680 8.97560 -4.46557 14.44360 1.12822 3.97931 86.51340 1.71850 76.80850 -2.25568 28.13440 99.66330 9.61052 12.02750 19.28200 25.49650 -6.06024 -19.03860 -29.80940 8.79639 72.29150 -4.34809 13.23510 0.69447 6.62415 -16.05510 -54.25870 -25.21520 8.67110 10.85400 41.27740 10.54730 -34.04250 -32.57350 -1.02607 1.81802 7.00912 -38.77830 16.43020 
12.99440 94.21350 -26.73450 -8.82018 -14.38940 -35.52030 -2.28317 11.63980 -0.09163 -2.67549 23.10190 0.17606 -7.39271 1.11970 9.53552 -0.00000 0.00000 -0.00000 -124.26900 -52.43580 -85.39430 -43.03710 61.45180 -89.37620 12.86160 9.09640 -3.30266 13.97620 1.10095 3.96119 86.59590 2.35290 76.67800 -2.27147 28.16280 99.75610 9.64707 12.02010 19.12070 26.40080 -6.20548 -20.10640 -29.25100 8.33126 72.40850 -5.42321 12.31920 0.85231 7.15257 -13.39420 -52.05940 -25.41430 8.23972 11.03820 41.13630 10.96090 -32.92560 -32.07990 -0.78726 1.85697 7.06944 -38.98650 16.44630 
13.50020 94.09920 -25.64400 -9.16069 -13.79530 -37.06310 -1.89998 11.60860 -0.26780 -2.62612 23.07940 -0.05373 -7.68082 0.51515 10.69980 -0.00000 0.00000 -0.00000 -121.86800 -51.88860 -83.31040 -38.49930 59.96130 -95.97200 12.94050 9.20043 -2.27199 13.41610 1.04942 3.82185 86.65860 3.23331 76.45270 -2.31204 28.13550 99.83320 9.67722 12.01500 18.99890 27.23040 -6.39497 -21.48220 -28.68200 8.07935 72.91020 -6.67455 11.42050 1.02339 7.73229 -9.82717 -49.59610 -25.66610 7.68367 11.16670 40.88530 11.45850 -31.58390 -31.56760 -0.52990 1.89783 7.08236 -39.10100 16.36820 
14.12900 93.74810 -24.33680 -9.83467 -12.86300 -38.81760 -0.39218 11.45830 -0.57269 -2.42697 22.96900 -0.24716 -8.01392 -0.15459 12.01900 -0.00000 0.00000 -0.00000 -119.71800 -51.61630 -82.12240 -35.39240 58.45950 -100.94000 13.12300 9.27955 -1.43846 12.87790 0.97243 3.50485 86.64980 4.36420 76.14880 -2.43479 28.04280 99.95470 9.75330 12.02170 18.90490 28.07830 -7.62129 -22.77460 -28.32100 10.40360 73.76220 -9.23218 10.10990 1.35208 8.30820 -5.46966 -47.24010 -25.52270 6.65942 10.98490 40.68820 12.91400 -30.16140 -30.75110 -0.68777 1.79844 7.03617 -38.99960 16.28820 
14.78520 93.40100 -22.95110 -10.37970 -11.94960 -40.68160 0.97749 11.30740 -0.84215 -2.36217 22.83520 -0.40262 -8.40167 -0.89427 13.48580 -0.00000 0.00000 -0.00000 -118.48000 -51.98050 -82.38790 -34.00200 57.45500 -103.81500 13.36650 9.33461 -0.82431 12.41390 0.88674 3.08918 86.50420 5.62714 75.79700 -2.63290 27.91020 100.13000 9.88328 12.04050 18.82500 28.71250 -8.68960 -24.04220 -28.04850 12.95200 74.71710 -11.84810 8.81504 1.63374 8.82928 -0.56667 -45.13240 -25.52400 5.52127 10.84630 40.41870 14.44160 -28.61770 -29.78040 -0.89057 1.67959 6.96249 -38.72290 16.29280 
15.45330 93.10850 -21.53550 -10.78100 -11.04970 -42.62020 2.11184 11.17960 -1.07944 -2.29961 22.69520 -0.55475 -8.90297 -1.72065 15.10650 -0.00000 0.00000 -0.00000 -119.05400 -53.28140 -84.85210 -34.23290 57.27020 -104.38900 13.59970 9.36381 -0.46874 11.95240 0.81315 2.73064 86.22580 6.87987 75.44880 -2.84712 27.76950 100.30200 10.02320 12.06460 18.78190 29.21680 -9.40830 -25.22450 -27.87090 15.25280 75.68660 -14.18760 7.61940 1.83255 9.22734 4.57376 -43.16010 -25.64960 4.37820 10.81890 40.04520 15.70260 -26.97710 -28.78270 -0.94042 1.60320 6.91647 -38.45410 16.40920 
16.13970 92.85380 -20.10850 -11.08960 -10.12240 -44.59340 3.09794 11.08100 -1.31880 -2.20681 22.57440 -0.75041 -9.53741 -2.67620 16.88350 -0.00000 0.00000 -0.00000 -122.82700 -55.54410 -90.74120 -36.00480 58.05830 -102.29800 13.81640 9.35276 -0.48650 11.40100 0.76841 2.57462 85.88870 8.02190 75.12740 -3.01921 27.63450 100.40600 10.11250 12.08850 18.84230 29.65520 -9.83523 -26.28950 -27.81410 17.31870 76.70760 -16.19510 6.58539 1.96416 9.41815 9.59526 -41.14800 -25.80530 3.24939 10.82900 39.56000 16.67790 -25.25720 -27.87190 -0.79106 1.58405 6.91832 -38.34270 16.55070 
